<?xml version="1.0" standalone="no"?>
<!DOCTYPE svg PUBLIC "-//W3C//DTD SVG 20010904//EN"
 "http://www.w3.org/TR/2001/REC-SVG-20010904/DTD/svg10.dtd">
<svg version="1.0" xmlns="http://www.w3.org/2000/svg"
 width="500.000000pt" height="500.000000pt" viewBox="0 0 500.000000 500.000000"
 preserveAspectRatio="xMidYMid meet">
<metadata>
Created by potrace 1.14, written by Peter Selinger 2001-2017
</metadata>
<g transform="translate(0.000000,500.000000) scale(0.100000,-0.100000)"
fill="#000000" stroke="none">
<path d="M0 2500 l0 -2500 2500 0 2500 0 0 2500 0 2500 -2500 0 -2500 0 0
-2500z m2180 1459 c0 -11 0 -22 0 -26 0 -5 -6 -8 -13 -8 -6 0 -18 -4 -25 -9
-7 -4 -16 -5 -20 -1 -3 3 0 10 8 15 14 9 11 12 -6 9 -14 -2 -22 24 -11 35 17
19 67 7 67 -15z m66 -40 c3 -5 -2 -9 -10 -9 -10 0 -13 -6 -10 -15 4 -9 0 -15
-9 -15 -8 0 -17 6 -20 13 -3 7 -9 2 -14 -12 l-10 -25 -5 27 c-3 14 -2 26 1 25
26 -3 40 4 35 16 -4 11 0 13 15 9 12 -3 24 -9 27 -14z m-171 -169 c-3 -5 -11
-10 -16 -10 -6 0 -7 5 -4 10 3 6 11 10 16 10 6 0 7 -4 4 -10z m26 -33 c-7 -7
-14 -8 -21 -1 -6 6 -2 10 12 11 16 2 18 -1 9 -10z m53 -76 c-5 -3 -10 -18 -11
-33 -1 -24 2 -26 18 -17 13 7 19 6 19 -1 0 -6 -7 -13 -15 -16 -8 -4 -13 -10
-10 -14 3 -5 -11 -6 -31 -4 -30 4 -35 2 -30 -11 3 -8 1 -15 -4 -15 -6 0 -10 4
-10 10 0 5 -6 7 -14 4 -7 -3 -16 2 -20 11 -3 9 -11 13 -18 9 -8 -5 -9 0 -6 14
4 14 2 22 -7 22 -10 0 -11 5 -2 25 16 33 32 26 32 -14 0 -30 20 -55 36 -45 4
2 5 19 2 38 -4 26 -1 35 13 40 10 4 21 1 25 -6 5 -8 10 -2 15 16 6 25 8 26 17
11 5 -10 6 -20 1 -24z m53 -86 c0 -8 -9 -15 -19 -15 -23 0 -24 17 0 23 9 3 17
5 18 6 0 0 1 -6 1 -14z m902 12 c-2 -2 -22 -13 -44 -25 l-40 -23 28 26 c15 14
35 25 44 25 9 0 14 -1 12 -3z m-907 -77 c13 -11 16 -20 9 -20 -13 0 -41 24
-41 34 0 11 11 6 32 -14z m1042 -16 c10 -25 -1 -29 -14 -5 -6 12 -7 21 -1 21
5 0 12 -7 15 -16z m-209 -4 c-3 -5 -10 -10 -16 -10 -5 0 -9 5 -9 10 0 6 7 10
16 10 8 0 12 -4 9 -10z m-109 -18 c-10 -16 -86 -65 -92 -59 -3 3 16 21 42 41
46 32 63 39 50 18z m-176 -142 c-19 -16 -37 -26 -40 -23 -3 2 11 17 30 33 19
16 37 26 40 23 3 -2 -11 -17 -30 -33z m458 -65 c-3 -3 -9 2 -12 12 -6 14 -5
15 5 6 7 -7 10 -15 7 -18z m402 -325 c0 -5 -5 -10 -11 -10 -5 0 -7 5 -4 10 3
6 8 10 11 10 2 0 4 -4 4 -10z m287 -47 c-3 -10 -5 -4 -5 12 0 17 2 24 5 18 2
-7 2 -21 0 -30z m-2309 -126 c-21 -18 -49 -58 -64 -90 -26 -59 -28 -86 -8
-157 5 -20 4 -23 -6 -13 -8 7 -16 39 -18 71 -3 49 0 68 23 113 25 51 78 108
100 109 6 0 -7 -15 -27 -33z m-303 -121 c-48 -102 -56 -92 -10 12 19 44 36 86
36 94 1 7 4 4 6 -7 2 -11 -12 -56 -32 -99z m2525 36 c0 -5 -17 -32 -39 -60
-21 -29 -46 -78 -55 -109 -9 -32 -24 -71 -32 -87 -17 -34 -6 -47 33 -40 16 3
23 0 23 -10 0 -20 36 -40 45 -26 4 6 11 7 17 4 14 -9 237 -8 246 1 4 3 -2 13
-13 22 -13 9 -15 14 -5 12 8 -2 25 2 38 9 18 11 22 10 22 -3 0 -8 -5 -15 -11
-15 -6 0 -4 -9 4 -21 13 -17 13 -25 2 -47 -12 -22 -12 -27 3 -38 9 -8 27 -14
40 -14 21 0 23 -3 17 -32 -4 -24 -3 -29 4 -18 5 8 12 12 15 9 3 -3 -5 -15 -19
-27 -14 -12 -25 -19 -26 -14 0 8 -21 -37 -25 -55 -1 -7 2 -13 7 -13 6 0 1 -9
-9 -20 -13 -14 -35 -22 -73 -24 -30 -3 -62 -8 -71 -11 -20 -8 -21 -3 -12 44 4
17 10 31 15 31 5 0 6 -6 3 -14 -3 -8 -1 -17 5 -21 6 -3 11 0 11 7 0 7 3 23 6
36 4 13 2 22 -5 22 -7 0 -9 -5 -5 -12 5 -9 2 -9 -9 1 -14 11 -17 11 -18 0 0
-8 -4 -3 -10 9 -5 13 -7 27 -4 32 3 4 -2 13 -10 20 -8 7 -15 16 -15 21 0 16
-39 49 -46 38 -3 -6 -18 -10 -32 -9 -43 3 -54 1 -47 -10 3 -5 -1 -10 -10 -10
-9 0 -13 -5 -10 -10 5 -7 11 -8 19 -1 12 10 46 15 84 13 24 -2 30 -30 11 -49
-13 -13 -2 -36 14 -30 18 6 37 -19 37 -48 0 -40 -24 -59 -68 -52 -22 4 -31 3
-23 -2 7 -5 9 -11 4 -14 -15 -9 -41 -2 -62 17 -12 11 -27 16 -37 12 -9 -4 -14
-9 -11 -12 3 -4 0 -13 -8 -21 -13 -12 -18 -11 -37 6 -25 24 -46 27 -54 8 -2
-7 -19 -13 -37 -14 -18 0 -50 -3 -72 -6 -37 -6 -38 -6 -12 5 15 7 27 17 27 24
0 7 6 15 13 17 7 3 5 6 -5 6 -10 1 -18 -6 -18 -14 0 -13 -19 -20 -43 -16 -4 1
-15 -5 -23 -14 -19 -19 -38 -20 -31 -1 4 11 -2 14 -26 13 -27 -2 -32 1 -30 18
3 19 2 19 -8 -1 -9 -19 -18 -21 -53 -17 -22 2 -60 5 -83 5 -32 1 -40 4 -36 15
3 9 14 13 25 10 15 -4 17 -3 8 8 -9 11 -17 11 -44 0 -33 -14 -33 -14 -28 11 4
20 7 22 19 12 13 -10 15 -9 11 7 -2 11 -9 19 -14 18 -5 -1 -10 15 -11 35 -1
51 -5 66 -23 73 -12 6 -10 9 7 16 23 8 23 8 3 21 -17 11 -22 10 -27 -5 -6 -13
-9 -7 -14 22 -9 50 9 77 37 54 15 -12 17 -12 12 1 -4 11 1 15 18 15 19 0 25
-7 30 -32 6 -34 18 -43 27 -20 3 7 6 5 6 -5 1 -10 6 -19 11 -19 34 -4 70 -3
70 2 0 7 -51 22 -59 19 -5 -2 -21 23 -21 33 0 4 8 3 18 -2 9 -5 45 -8 79 -6
54 3 62 1 61 -13 -3 -38 3 -50 28 -55 l26 -5 -26 22 c-19 14 -25 27 -21 39 7
18 25 24 25 8 0 -6 12 -4 27 4 27 14 48 11 38 -6 -4 -5 -2 -9 4 -9 5 0 12 4
15 9 3 4 17 6 31 4 13 -3 22 -9 19 -14 -3 -5 0 -17 6 -26 11 -17 11 -17 6 0
-9 27 4 50 20 36 15 -12 38 -3 29 12 -4 5 -1 9 6 9 7 0 10 3 7 6 -3 3 4 16 17
29 12 14 36 62 52 108 17 46 48 107 69 135 39 53 44 58 44 44z m-2132 -119
c-9 -10 -28 -42 -43 -71 -14 -30 -29 -52 -31 -49 -7 6 55 130 70 139 18 11 20
-1 4 -19z m585 -37 c6 -15 10 -17 19 -8 14 14 52 16 44 3 -3 -5 2 -12 11 -15
9 -4 20 -2 23 5 5 7 12 0 20 -18 8 -17 26 -35 42 -41 16 -6 26 -6 22 -1 -3 6
5 7 20 3 28 -7 30 -5 20 21 -4 9 -10 12 -13 7 -10 -15 -51 -25 -51 -12 0 6 -4
9 -9 6 -5 -3 -12 1 -15 9 -4 13 -2 13 14 5 27 -15 37 -12 43 10 4 17 11 20 36
15 17 -3 40 0 51 7 17 11 22 10 29 -1 5 -8 16 -11 26 -8 9 4 14 11 10 16 -3 5
-1 12 5 16 5 3 10 1 10 -4 0 -6 7 -11 15 -11 8 0 15 4 15 9 0 6 12 6 28 2 15
-4 33 -6 41 -3 8 3 11 0 7 -7 -7 -11 4 -15 34 -12 8 1 4 -5 -10 -13 -22 -13
-25 -13 -28 0 -2 8 -7 14 -10 14 -4 0 -18 3 -31 7 -17 4 -22 3 -17 -5 4 -7 1
-12 -6 -12 -8 0 -9 -3 -3 -8 6 -4 11 -22 12 -40 2 -28 0 -31 -12 -20 -33 30
-41 34 -70 33 -32 0 -34 -7 -21 -60 6 -24 5 -26 -16 -20 -13 4 -31 9 -40 11
-10 3 -18 1 -18 -4 0 -17 -56 -32 -69 -19 -6 6 -11 8 -11 3 0 -4 -8 0 -17 10
-11 11 -18 13 -21 5 -2 -6 -10 -11 -17 -11 -8 0 -18 -6 -22 -14 -7 -11 -10
-12 -20 -1 -10 10 -9 16 2 25 8 7 15 17 15 23 0 6 -6 2 -14 -9 -11 -15 -17
-16 -27 -7 -7 8 -19 9 -35 3 -15 -6 -24 -5 -27 3 -2 7 -7 9 -11 6 -3 -3 3 -15
14 -26 22 -24 17 -33 -17 -33 -20 0 -23 4 -21 28 3 23 -1 27 -25 30 -16 2 -42
-1 -58 -7 -18 -6 -29 -6 -29 0 0 5 5 9 11 9 5 0 8 4 5 9 -3 5 -16 7 -29 4 -18
-5 -20 -3 -9 8 7 8 18 14 25 15 7 0 22 2 34 2 16 2 21 7 17 20 -5 15 -4 15 10
-2 8 -10 19 -15 25 -11 7 3 8 0 5 -10 -5 -11 -2 -14 9 -9 9 3 13 12 10 20 -3
8 0 21 7 29 7 9 10 18 7 22 -4 3 -9 -2 -13 -11 -9 -22 -34 -20 -34 4 0 24 21
36 63 36 22 -1 34 -7 40 -20z m547 -7 c0 -5 -4 -9 -8 -9 -5 0 -9 7 -9 15 0 8
4 12 9 9 4 -3 8 -9 8 -15z m48 4 c-14 -17 -25 -16 -31 1 -4 10 2 13 18 12 17
-1 21 -4 13 -13z m46 -22 c9 -12 8 -12 -11 -1 -13 8 -19 20 -15 29 5 13 6 13
10 0 3 -7 10 -20 16 -28z m40 28 c-6 -11 -31 -12 -37 -1 -3 4 6 8 19 8 13 1
21 -2 18 -7z m42 -15 c-4 -9 -9 -15 -11 -12 -3 3 -3 13 1 22 4 9 9 15 11 12 3
-3 3 -13 -1 -22z m64 10 c0 -11 -14 -34 -21 -34 -4 0 -6 6 -3 14 3 8 -2 16
-13 19 -10 3 -6 4 10 4 15 -1 27 -2 27 -3z m-640 -12 c0 -5 -7 -9 -15 -9 -8 0
-15 4 -15 9 0 4 7 8 15 8 8 0 15 -4 15 -8z m700 -13 c0 -14 -18 -19 -24 -7 -4
7 -4 3 -2 -9 3 -17 -1 -23 -15 -23 -21 0 -24 12 -9 40 10 18 50 18 50 -1z
m-250 -3 c0 -3 -4 -8 -10 -11 -5 -3 -10 -1 -10 4 0 6 5 11 10 11 6 0 10 -2 10
-4z m294 -11 c19 -14 19 -15 -7 -15 -17 0 -27 5 -27 15 0 19 9 19 34 0z m-180
-40 c3 -8 1 -15 -4 -15 -6 0 -10 7 -10 15 0 8 2 15 4 15 2 0 6 -7 10 -15z
m166 -19 c0 -4 -7 -5 -16 -2 -11 4 -15 2 -11 -8 3 -8 -2 -23 -11 -33 -9 -11
-13 -13 -8 -6 6 9 3 13 -10 13 -18 1 -18 1 -1 11 9 5 17 14 17 20 0 19 24 38
32 25 4 -6 8 -15 8 -20z m-1473 -28 c-3 -8 -6 -5 -6 6 -1 11 2 17 5 13 3 -3 4
-12 1 -19z m513 -5 c0 -8 -4 -12 -9 -9 -5 4 -12 0 -14 -6 -4 -10 -8 -9 -16 2
-6 8 -11 10 -11 4 0 -6 -7 -11 -15 -11 -19 0 -19 7 0 21 23 17 65 16 65 -1z
m753 -3 c4 -16 0 -19 -19 -18 -22 2 -22 4 -7 20 20 22 20 22 26 -2z m-656 4
c-3 -3 -12 -4 -19 -1 -8 3 -5 6 6 6 11 1 17 -2 13 -5z m750 -9 c0 -8 -4 -12
-9 -9 -5 3 -6 10 -3 15 9 13 12 11 12 -6z m823 5 c0 -5 -2 -10 -4 -10 -3 0 -8
5 -11 10 -3 6 -1 10 4 10 6 0 11 -4 11 -10z m143 -10 c3 -13 0 -18 -13 -17
-10 1 -17 4 -14 8 2 4 0 10 -6 14 -5 3 -10 2 -10 -3 0 -5 -7 -9 -15 -9 -8 0
-12 4 -9 9 3 4 -2 8 -10 8 -9 0 -16 -5 -16 -11 0 -5 -4 -7 -10 -4 -23 14 -6
24 44 24 44 0 55 -4 59 -19z m-483 0 c0 -5 -5 -10 -11 -10 -5 0 -7 5 -4 10 3
6 8 10 11 10 2 0 4 -4 4 -10z m-1333 -17 c-3 -5 0 -19 5 -33 15 -37 19 -80 8
-80 -6 0 -9 6 -7 13 1 6 -5 12 -13 12 -8 0 -15 -7 -15 -15 0 -8 -7 -20 -15
-26 -11 -9 -17 -8 -28 5 -12 14 -13 14 -9 0 3 -9 1 -22 -5 -30 -8 -11 -9 -11
-5 3 3 9 3 19 -1 23 -4 4 -7 12 -7 18 0 7 -12 13 -27 15 -19 2 -28 -2 -33 -18
-6 -20 -7 -20 -35 -3 -25 14 -28 21 -23 47 9 47 22 55 107 60 43 3 81 8 84 11
8 8 24 6 19 -2z m785 -15 c-7 -7 -12 -8 -12 -2 0 14 12 26 19 19 2 -3 -1 -11
-7 -17z m110 7 c4 -5 2 -15 -4 -22 -6 -7 -7 -13 -4 -13 4 0 4 -5 1 -10 -8 -13
-35 13 -35 33 0 26 26 34 42 12z m808 11 c0 -3 -4 -8 -10 -11 -5 -3 -10 -1
-10 4 0 6 5 11 10 11 6 0 10 -2 10 -4z m-2553 -32 c47 -36 83 -73 83 -86 0 -6
-24 12 -54 41 -30 28 -60 51 -65 51 -6 0 -11 5 -11 10 0 16 10 12 47 -16z
m228 -81 c-11 -47 -21 -13 -11 39 10 49 11 50 14 19 2 -19 1 -45 -3 -58z
m2692 -7 c-2 -5 -14 -16 -27 -25 -23 -15 -24 -15 -16 4 5 11 9 27 10 36 0 13
4 14 18 5 10 -6 17 -15 15 -20z m-2185 -1 c0 -5 -5 -11 -11 -13 -6 -2 -11 4
-11 13 0 9 5 15 11 13 6 -2 11 -8 11 -13z m138 -64 c0 -19 -7 -43 -17 -53 -9
-11 -11 -18 -5 -18 7 0 12 5 12 11 0 5 5 7 10 4 14 -9 12 -21 -5 -38 -13 -13
-13 -17 0 -27 8 -7 12 -16 9 -21 -7 -13 -34 -11 -34 2 0 5 5 7 10 4 15 -9 12
4 -5 22 -8 8 -12 19 -9 25 4 6 1 9 -7 6 -8 -3 -13 -15 -12 -27 2 -13 -1 -20
-7 -16 -6 3 -10 12 -10 20 0 7 -6 16 -12 18 -7 3 -4 6 8 6 25 1 49 42 41 70
-6 26 15 75 25 58 4 -7 8 -27 8 -46z m2055 -10 c-4 -17 -11 -31 -16 -31 -6 0
-7 -4 -4 -10 3 -5 -1 -10 -9 -10 -9 0 -16 -4 -16 -9 0 -5 -14 -14 -32 -20 -30
-11 -30 -10 -15 7 10 10 14 27 11 39 -5 17 -2 22 14 20 11 0 18 -5 16 -9 -3
-5 -11 -5 -17 -2 -9 5 -8 3 0 -6 10 -11 17 -9 38 14 14 15 25 34 25 43 0 9 3
14 6 10 3 -3 3 -19 -1 -36z m-2109 15 c8 -8 10 -17 6 -20 -5 -3 -16 4 -25 15
-19 22 -3 26 19 5z m1740 -13 c-10 -10 -19 5 -10 18 6 11 8 11 12 0 2 -7 1
-15 -2 -18z m-2475 -11 c-16 -31 -38 -45 -47 -31 -4 7 3 19 17 30 31 24 42 24
30 1z m523 -21 c-2 -3 -12 3 -22 13 -16 17 -16 18 5 5 12 -7 20 -15 17 -18z
m89 22 c4 -3 1 -13 -6 -21 -10 -13 -8 -14 15 -10 19 4 25 1 21 -9 -3 -7 0 -13
6 -13 16 0 14 -17 -3 -23 -10 -4 -13 -1 -9 8 3 9 -4 18 -21 25 -18 7 -24 14
-19 26 5 14 2 16 -15 12 -12 -4 -20 -2 -16 3 6 10 38 12 47 2z m-780 -23 c4
-14 0 -20 -11 -21 -10 0 -29 -3 -44 -5 -16 -3 -28 0 -28 6 0 10 12 14 43 11 9
-1 17 4 17 13 0 23 17 20 23 -4z m862 -8 c-8 -8 -25 10 -19 20 4 6 9 5 15 -3
4 -7 6 -15 4 -17z m-953 11 c-6 -2 -9 -9 -6 -15 7 -11 -13 -28 -33 -28 -7 0
-13 7 -13 15 0 9 -6 12 -15 9 -8 -4 -15 -1 -15 4 0 9 20 14 85 20 6 0 4 -2 -3
-5z m815 -60 c-3 -10 -5 -4 -5 12 0 17 2 24 5 18 2 -7 2 -21 0 -30z m133 27
c0 -5 -2 -10 -4 -10 -3 0 -8 5 -11 10 -3 6 -1 10 4 10 6 0 11 -4 11 -10z
m-830 -28 c0 -4 -9 -8 -20 -9 -11 -1 -20 2 -20 8 0 5 9 9 20 9 11 0 20 -4 20
-8z m850 -11 c0 -6 -4 -12 -8 -15 -5 -3 -9 1 -9 9 0 8 4 15 9 15 4 0 8 -4 8
-9z m1630 -11 c0 -5 -2 -10 -4 -10 -3 0 -8 5 -11 10 -3 6 -1 10 4 10 6 0 11
-4 11 -10z m-2456 -9 c6 -9 -35 -24 -43 -15 -6 5 18 24 31 24 4 0 9 -4 12 -9z
m734 -9 c6 -18 -15 -14 -22 4 -4 10 -1 14 6 12 6 -2 14 -10 16 -16z m1627 8
c3 -5 2 -10 -4 -10 -5 0 -13 5 -16 10 -3 6 -2 10 4 10 5 0 13 -4 16 -10z
m-2315 -4 c0 -3 -4 -8 -10 -11 -5 -3 -10 -1 -10 4 0 6 5 11 10 11 6 0 10 -2
10 -4z m-120 -15 c0 -5 -11 -8 -25 -8 -13 0 -22 3 -19 8 3 5 14 9 25 9 10 0
19 -4 19 -9z m179 -15 c-12 -10 -59 -15 -59 -6 0 5 14 10 32 10 17 0 29 -2 27
-4z m2506 -46 c-9 -18 -11 -31 -5 -35 15 -9 12 -25 -4 -19 -8 3 -18 -7 -27
-28 -7 -18 -15 -35 -18 -38 -3 -3 -12 -16 -20 -29 -53 -94 -60 -111 -51 -111
5 0 9 -3 9 -7 -4 -22 3 -35 15 -30 8 3 24 -6 37 -20 l24 -26 -25 16 c-45 28
-139 6 -126 -30 3 -8 2 -11 -4 -8 -5 3 -16 -8 -25 -24 -9 -19 -11 -32 -5 -36
6 -3 10 -11 10 -17 0 -7 -5 -6 -15 2 -9 8 -13 23 -9 43 3 18 5 40 5 50 0 9 4
15 10 12 5 -4 12 1 15 9 3 9 14 16 24 16 11 0 21 4 25 10 3 5 12 7 20 3 17 -6
18 -2 9 21 -3 9 -14 16 -24 16 -23 0 -27 37 -20 180 4 91 6 100 13 62 5 -23 6
-80 2 -127 -5 -52 -4 -85 2 -85 17 0 48 43 88 122 l39 77 -22 24 c-30 32 -28
46 3 17 l24 -23 11 27 c5 15 14 24 20 21 6 -4 4 -17 -5 -35z m-2595 10 c0 -5
-9 -10 -19 -10 -11 0 -23 5 -26 10 -4 6 5 10 19 10 14 0 26 -4 26 -10z m539
-26 c2 -2 -12 -4 -32 -4 -20 0 -38 4 -41 9 -5 8 64 4 73 -5z m70 -7 c-2 -1
-15 -11 -28 -22 -14 -11 -21 -14 -16 -6 4 8 2 17 -6 22 -10 6 -3 9 20 9 19 0
32 -1 30 -3z m1575 -24 c28 -16 56 -32 62 -38 6 -5 23 -19 38 -30 35 -26 89
-109 84 -131 -2 -12 -11 -2 -27 29 -33 65 -132 150 -199 171 -12 4 -22 12 -22
17 0 14 8 11 64 -18z m-134 8 c0 -5 -11 -23 -24 -38 l-25 -29 34 -12 c21 -8
35 -21 39 -37 7 -26 -14 -88 -33 -99 -15 -10 -13 5 4 28 8 11 15 33 15 48 0
23 -7 32 -36 45 -34 17 -36 17 -52 -2 -9 -11 -32 -33 -51 -50 -25 -22 -31 -25
-23 -10 6 12 23 33 38 48 l27 27 -43 0 -42 0 42 35 c23 19 48 35 56 35 21 0
17 -6 -17 -28 -25 -15 -28 -20 -14 -25 11 -5 30 7 58 33 46 44 47 44 47 31z
m-1554 -16 c-1 -8 -5 -17 -8 -21 -5 -4 -4 16 1 34 3 9 9 -1 7 -13z m-6 -70
c-7 -8 -17 -15 -22 -15 -6 0 -5 7 2 15 7 8 17 15 22 15 6 0 5 -7 -2 -15z
m-617 -22 c-7 -2 -19 -2 -25 0 -7 3 -2 5 12 5 14 0 19 -2 13 -5z m637 -118 c8
-11 0 -7 -18 9 -18 17 -32 33 -32 38 0 9 27 -17 50 -47z m2096 -22 c-1 -17 -7
-23 -23 -23 -13 0 -23 5 -23 10 0 6 7 10 15 10 8 0 15 5 15 11 0 5 -4 7 -10 4
-5 -3 -10 -2 -10 4 0 5 8 9 19 8 13 -1 18 -8 17 -24z m104 7 c0 -14 7 -20 24
-20 15 0 26 7 29 20 7 28 40 25 53 -4 14 -31 7 -33 -111 -26 -78 4 -85 6 -52
13 28 6 37 12 33 23 -3 8 1 14 9 14 8 0 15 -9 15 -20z m-2507 3 c-7 -2 -19 -2
-25 0 -7 3 -2 5 12 5 14 0 19 -2 13 -5z m2160 -24 c20 -1 20 -2 -3 -8 -25 -8
-65 -1 -42 7 7 2 13 11 13 20 1 15 2 15 6 0 2 -10 14 -18 26 -19z m-66 -20
c-3 -10 2 -20 10 -23 9 -4 12 -2 7 7 -5 8 -2 7 9 -2 18 -15 23 -26 7 -16 -14
9 -13 -8 2 -23 9 -9 7 -16 -7 -32 -10 -11 -21 -17 -26 -15 -4 3 -11 0 -15 -6
-4 -8 -3 -9 4 -5 7 4 12 3 12 -3 0 -20 -23 -24 -37 -6 -8 12 -13 14 -13 6 0
-10 -3 -11 -13 -2 -8 6 -17 8 -20 4 -4 -3 -30 -7 -58 -8 -27 -1 -47 1 -42 4
18 13 33 50 22 56 -6 5 -6 12 3 23 11 15 11 15 -3 5 -9 -7 -20 -9 -24 -5 -5 4
-6 2 -2 -3 8 -16 -36 -11 -61 7 -12 8 -19 18 -15 22 13 13 -20 25 -39 15 -11
-6 -18 -6 -18 0 0 15 11 16 171 17 138 0 150 -1 146 -17z m390 -15 c-3 -3 -12
-4 -19 -1 -8 3 -5 6 6 6 11 1 17 -2 13 -5z m-103 -19 c-18 -14 -18 -14 5 -15
35 0 22 -8 -21 -13 -40 -4 -43 11 -5 29 32 17 44 16 21 -1z m56 -5 c0 -5 -5
-10 -11 -10 -5 0 -7 5 -4 10 3 6 8 10 11 10 2 0 4 -4 4 -10z m-2780 -19 c0
-20 -13 -41 -21 -35 -5 3 -6 11 -3 17 4 7 1 7 -7 -1 -12 -11 -11 -15 5 -27 12
-9 17 -21 13 -35 -3 -11 -3 -20 -1 -20 2 0 49 20 104 45 55 25 107 45 115 45
17 0 20 -16 5 -25 -18 -11 0 -25 31 -25 35 0 59 -19 56 -47 -1 -19 -8 -19
-160 -16 -173 3 -167 1 -217 67 -15 19 -14 19 13 1 32 -21 43 -16 24 10 -17
22 -83 27 -99 8 -9 -11 -14 -11 -26 -1 -12 10 -16 10 -19 1 -2 -7 -11 -9 -19
-6 -33 12 -9 22 74 28 48 4 94 11 102 16 20 11 30 11 30 0z m2608 -3 c15 3 25
2 22 -1 -3 -3 -22 -8 -44 -11 -35 -6 -37 -5 -25 10 7 9 15 12 16 7 2 -6 16 -8
31 -5z m-75 -13 c-3 -9 -8 -14 -10 -11 -3 3 -2 9 2 15 9 16 15 13 8 -4z
m-1943 -55 c0 -13 5 -18 15 -14 8 4 15 1 15 -5 0 -17 -37 -13 -44 5 -9 23 -7
34 4 34 6 0 10 -9 10 -20z m-114 -28 c-9 -8 -26 10 -26 26 1 15 2 15 15 -2 8
-11 13 -21 11 -24z m-38 10 c2 -7 -1 -12 -8 -12 -6 0 -9 4 -6 9 4 5 1 12 -4
14 -6 3 -5 4 2 3 6 -1 14 -8 16 -14z m102 -8 c0 -2 -12 -4 -26 -4 -14 0 -23 4
-20 9 6 8 46 4 46 -5z m1884 7 c15 -6 16 -10 7 -16 -7 -4 -16 -3 -20 2 -3 6
-13 13 -21 16 -13 5 -13 5 0 6 8 0 24 -4 34 -8z m-604 -36 c-30 -19 -61 -35
-69 -35 -8 0 9 16 39 35 30 19 62 34 70 34 8 0 -10 -15 -40 -34z m-1426 -17
c-4 -6 -10 -5 -15 3 -14 22 -10 33 6 19 8 -7 12 -17 9 -22z m591 -58 c20 -27
49 -60 66 -74 38 -32 38 -44 -1 -16 -32 23 -125 140 -111 140 5 0 26 -22 46
-50z m-810 -25 c20 2 23 0 14 -11 -6 -8 -22 -14 -34 -14 -12 0 -28 -7 -35 -15
-10 -13 -10 -19 4 -33 9 -10 13 -22 9 -27 -5 -4 -2 -5 5 -1 6 4 12 18 12 31 0
23 35 54 47 42 4 -5 11 -30 12 -51 1 -6 7 -3 14 5 6 8 23 24 37 36 l25 22 1
-25 c1 -17 -3 -24 -17 -24 -10 0 -17 -5 -14 -12 2 -7 -4 -29 -13 -48 -18 -37
-43 -43 -92 -22 -24 10 -24 11 -2 11 12 1 22 -5 22 -11 0 -9 4 -8 10 2 16 25
12 32 -17 28 -23 -3 -31 4 -52 41 l-24 44 21 18 c15 11 20 24 16 36 -5 14 -3
13 10 -4 10 -14 25 -20 41 -18z m65 25 c0 -5 8 -10 18 -11 10 0 12 -3 5 -6 -7
-2 -13 -13 -13 -23 0 -30 -24 -42 -38 -19 -10 15 -10 19 1 19 7 0 14 10 14 22
2 16 0 19 -6 9 -6 -9 -11 -10 -15 -2 -4 6 -12 9 -17 6 -5 -4 -9 -1 -9 4 0 6
14 11 30 11 17 0 30 -4 30 -10z m-181 -48 c-2 -9 9 -41 23 -69 14 -29 22 -53
18 -53 -13 0 -49 46 -55 72 -5 17 -12 25 -21 21 -9 -3 -14 2 -14 14 0 24 4 28
30 30 15 1 20 -3 19 -15z m422 -5 c-10 -9 -11 -8 -5 6 3 10 9 15 12 12 3 -3 0
-11 -7 -18z m-66 -7 c3 -5 1 -10 -4 -10 -6 0 -11 5 -11 10 0 6 2 10 4 10 3 0
8 -4 11 -10z m115 0 c0 -5 -2 -10 -4 -10 -3 0 -8 5 -11 10 -3 6 -1 10 4 10 6
0 11 -4 11 -10z m70 -22 c0 -10 -42 -48 -52 -48 -13 0 -9 18 5 23 9 4 8 8 -3
16 -11 8 -16 6 -19 -7 -4 -22 -21 -42 -34 -42 -5 0 -2 9 7 19 11 12 14 21 7
26 -24 14 -8 23 39 21 27 0 50 -4 50 -8z m-145 -46 c-6 -16 -7 -16 -16 0 -5 9
-6 24 -3 33 7 16 8 16 16 0 5 -9 7 -24 3 -33z m-175 -14 c0 -19 -2 -20 -10 -8
-13 19 -13 30 0 30 6 0 10 -10 10 -22z m950 -38 c13 -9 13 -10 0 -10 -8 0 -22
5 -30 10 -13 9 -13 10 0 10 8 0 22 -5 30 -10z"/>
<path d="M3650 2351 c-7 -13 -7 -22 0 -26 15 -10 12 -25 -4 -19 -10 4 -22 -8
-36 -36 -12 -23 -17 -39 -12 -36 5 3 15 19 22 36 8 20 18 29 27 26 8 -4 21 -6
29 -6 9 0 12 -5 9 -10 -4 -6 -10 -8 -15 -5 -4 3 -6 -5 -2 -17 5 -21 5 -21 13
-1 4 12 12 24 18 28 6 3 11 15 11 26 0 10 7 19 15 19 9 0 12 6 9 15 -5 11 -10
12 -18 6 -9 -7 -19 -6 -34 5 -19 13 -22 13 -32 -5z"/>
<path d="M3114 2306 c-1 -16 3 -23 11 -20 7 3 11 14 8 25 -7 27 -18 24 -19 -5z"/>
<path d="M3345 2301 c-16 -19 -16 -20 2 -18 11 0 19 8 19 19 0 22 1 22 -21 -1z"/>
<path d="M3739 2318 c-5 -9 -5 -48 -1 -43 6 6 11 45 5 45 -2 0 -4 -1 -4 -2z"/>
<path d="M3150 2300 c0 -5 5 -10 10 -10 6 0 10 5 10 10 0 6 -4 10 -10 10 -5 0
-10 -4 -10 -10z"/>
<path d="M3524 2283 c3 -10 -1 -28 -9 -39 -12 -16 -16 -17 -24 -4 -6 8 -13 11
-18 7 -4 -5 -2 -12 5 -16 7 -4 14 -17 15 -29 1 -16 4 -18 14 -10 9 7 14 6 19
-6 5 -14 9 -12 25 8 25 31 24 48 0 19 -17 -20 -20 -21 -25 -6 -4 9 -2 21 4 27
13 13 13 53 -1 62 -7 4 -9 0 -5 -13z"/>
<path d="M3460 2279 c0 -5 5 -7 10 -4 6 3 10 8 10 11 0 2 -4 4 -10 4 -5 0 -10
-5 -10 -11z"/>
<path d="M3636 2263 c-6 -14 -5 -15 5 -6 7 7 10 15 7 18 -3 3 -9 -2 -12 -12z"/>
<path d="M3768 2273 c7 -3 16 -2 19 1 4 3 -2 6 -13 5 -11 0 -14 -3 -6 -6z"/>
<path d="M3325 2260 c3 -5 8 -10 11 -10 2 0 4 5 4 10 0 6 -5 10 -11 10 -5 0
-7 -4 -4 -10z"/>
<path d="M3835 2260 c-3 -5 -1 -10 4 -10 6 0 11 5 11 10 0 6 -2 10 -4 10 -3 0
-8 -4 -11 -10z"/>
<path d="M4081 2234 c0 -11 3 -14 6 -6 3 7 2 16 -1 19 -3 4 -6 -2 -5 -13z"/>
<path d="M3240 2230 c0 -5 5 -10 10 -10 6 0 10 5 10 10 0 6 -4 10 -10 10 -5 0
-10 -4 -10 -10z"/>
<path d="M3372 2224 c-7 -8 -8 -14 -3 -14 10 0 25 19 20 25 -2 1 -10 -3 -17
-11z"/>
<path d="M4026 2214 c-4 -9 -4 -19 -1 -22 2 -3 7 3 11 12 4 9 4 19 1 22 -2 3
-7 -3 -11 -12z"/>
<path d="M3460 2211 c0 -5 5 -13 10 -16 6 -3 10 -2 10 4 0 5 -4 13 -10 16 -5
3 -10 2 -10 -4z"/>
<path d="M3613 2202 c-46 -19 -64 -32 -42 -32 17 0 99 37 99 45 0 8 -11 5 -57
-13z"/>
<path d="M3378 2199 c-20 -11 -24 -34 -7 -45 7 -4 9 0 5 13 -5 14 0 23 16 31
13 6 19 11 13 11 -5 0 -18 -4 -27 -10z"/>
<path d="M3202 2187 c-8 -10 -7 -13 7 -14 10 -1 18 5 18 13 0 17 -11 18 -25 1z"/>
<path d="M3240 2170 c0 -5 5 -10 11 -10 5 0 7 5 4 10 -3 6 -8 10 -11 10 -2 0
-4 -4 -4 -10z"/>
<path d="M3945 2160 c-3 -5 -1 -10 4 -10 6 0 11 5 11 10 0 6 -2 10 -4 10 -3 0
-8 -4 -11 -10z"/>
<path d="M3445 2140 c3 -5 8 -10 11 -10 2 0 4 5 4 10 0 6 -5 10 -11 10 -5 0
-7 -4 -4 -10z"/>
<path d="M3190 2129 c0 -5 5 -7 10 -4 6 3 10 8 10 11 0 2 -4 4 -10 4 -5 0 -10
-5 -10 -11z"/>
<path d="M3287 2129 c7 -7 15 -10 18 -7 3 3 -2 9 -12 12 -14 6 -15 5 -6 -5z"/>
<path d="M3487 2123 c7 -17 20 -17 26 1 4 10 0 14 -12 13 -11 -1 -17 -7 -14
-14z"/>
<path d="M4002 2134 c4 -3 0 -14 -9 -23 -16 -15 -14 -16 20 -19 20 -2 37 -7
37 -13 0 -5 6 -9 13 -9 8 0 14 7 14 15 0 8 -7 15 -14 15 -8 0 -11 4 -8 10 3 6
-1 7 -9 4 -9 -3 -16 -2 -16 4 0 5 -8 13 -17 16 -10 4 -14 4 -11 0z"/>
<path d="M3406 2118 c3 -4 12 -8 20 -8 8 0 14 4 14 8 0 4 -9 8 -19 8 -11 0
-17 -4 -15 -8z"/>
<path d="M3250 2104 c0 -8 5 -12 10 -9 6 4 8 11 5 16 -9 14 -15 11 -15 -7z"/>
<path d="M3520 2102 c0 -15 48 -24 68 -13 14 9 13 10 -10 11 -14 0 -33 3 -42
6 -9 3 -16 2 -16 -4z"/>
<path d="M3668 2103 c7 -3 16 -2 19 1 4 3 -2 6 -13 5 -11 0 -14 -3 -6 -6z"/>
<path d="M3280 2085 c0 -17 19 -19 40 -4 13 9 12 10 -2 5 -10 -3 -18 -1 -18 4
0 6 -4 10 -10 10 -5 0 -10 -7 -10 -15z"/>
<path d="M3385 2091 c-3 -5 -1 -12 5 -16 5 -3 10 1 10 9 0 18 -6 21 -15 7z"/>
<path d="M3425 2090 c-16 -7 -17 -9 -3 -9 9 -1 20 4 23 9 7 11 7 11 -20 0z"/>
<path d="M3455 2080 c-10 -11 -16 -22 -13 -25 3 -3 13 4 23 15 10 11 16 22 13
25 -3 3 -13 -4 -23 -15z"/>
<path d="M3250 2070 c0 -5 5 -10 10 -10 6 0 10 5 10 10 0 6 -4 10 -10 10 -5 0
-10 -4 -10 -10z"/>
<path d="M2290 2495 c0 -7 57 -35 72 -35 7 0 -5 9 -27 20 -42 22 -45 22 -45
15z"/>
<path d="M2221 2468 c-1 -20 14 -24 25 -6 4 6 3 8 -4 4 -5 -3 -13 0 -15 6 -3
8 -6 6 -6 -4z"/>
<path d="M2263 2473 c4 -3 2 -11 -3 -18 -7 -8 -3 -15 13 -22 20 -9 23 -8 23
11 0 21 -12 36 -30 36 -5 0 -6 -3 -3 -7z"/>
<path d="M2320 2430 c0 -5 4 -10 9 -10 5 0 11 -10 14 -22 4 -12 9 -20 12 -16
7 7 -16 58 -27 58 -4 0 -8 -4 -8 -10z"/>
<path d="M2126 2241 c-4 -7 -5 -15 -2 -18 9 -9 19 4 14 18 -4 11 -6 11 -12 0z"/>
<path d="M2182 2160 c0 -14 2 -19 5 -12 2 6 2 18 0 25 -3 6 -5 1 -5 -13z"/>
</g>
</svg>
